<svg width="38" height="38" viewBox="0 0 38 38" fill="none" xmlns="http://www.w3.org/2000/svg">
<path d="M8.84991 32.6668C9.83708 33.4066 11.4021 33.9498 13.801 33.5558C13.8052 34.1979 13.8104 34.8008 13.8147 35.2983C13.8194 35.8425 13.823 36.2604 13.823 36.4654C13.823 36.61 13.7718 36.7325 13.695 36.8025C13.6353 36.857 13.4917 36.9425 13.1572 36.8872C5.87524 34.4473 0.628662 27.5696 0.628662 19.466C0.628662 9.31934 8.85508 1.09473 18.9999 1.09473C29.1456 1.09473 37.3712 9.31994 37.3715 19.466C37.3715 27.5673 32.13 34.4434 24.8514 36.8851C24.5074 36.9454 24.3644 36.8584 24.3072 36.8062C24.2325 36.7381 24.1805 36.6153 24.1805 36.465C24.1805 36.2606 24.1829 35.9021 24.1861 35.4207C24.1878 35.1753 24.1896 34.8978 24.1915 34.5925C24.1969 33.6906 24.2024 32.5502 24.2024 31.2863C24.2024 29.9535 23.8764 28.9104 23.3962 28.1674C25.2457 27.8815 27.1319 27.3137 28.6273 26.0621C30.3963 24.5815 31.539 22.2138 31.539 18.4804C31.539 16.4076 30.8383 14.6818 29.6686 13.3071C29.9362 12.493 30.321 10.627 29.3765 8.2372L29.2895 8.01707L29.0641 7.94483L28.9115 8.42098C29.0641 7.94483 29.0636 7.94468 29.0631 7.94452L29.0621 7.9442L29.0599 7.94353L29.0552 7.94207L29.0439 7.93876C29.0356 7.93639 29.0257 7.9337 29.0141 7.93082C28.991 7.92504 28.9615 7.91846 28.9254 7.91194C28.8533 7.89888 28.7553 7.88612 28.6309 7.8804C28.3817 7.86896 28.0289 7.88588 27.5668 7.98334C26.6757 8.17129 25.382 8.65776 23.6377 9.81335C22.148 9.42232 20.5678 9.22706 19.0022 9.22003L18.9977 9.22005C17.4311 9.22706 15.8518 9.42288 14.3646 9.81394C12.6182 8.6583 11.323 8.17186 10.4309 7.98394C9.96839 7.8865 9.6153 7.86959 9.3659 7.88103C9.24137 7.88674 9.14335 7.8995 9.07114 7.91254C9.03506 7.91906 9.00551 7.92564 8.98241 7.93141C8.97086 7.93429 8.96093 7.93697 8.95261 7.93934L8.94134 7.94265L8.9366 7.9441L8.93446 7.94477L8.93345 7.9451C8.93296 7.94525 8.93247 7.94541 9.08491 8.4216L8.93247 7.94541L8.70669 8.01768L8.61975 8.23823C7.67755 10.6283 8.06274 12.4941 8.33063 13.3081C7.1637 14.682 6.45772 16.4074 6.45772 18.481C6.45772 22.206 7.59837 24.5743 9.363 26.0594C10.8566 27.3164 12.741 27.8909 14.5884 28.1812C14.2831 28.658 14.0415 29.2578 13.9085 29.9769C13.3947 30.1778 12.6556 30.3796 11.8838 30.3106C11.0141 30.2329 10.0577 29.8096 9.30007 28.5134L9.29818 28.5101L9.2862 28.4893C9.2762 28.4722 9.26215 28.4487 9.24408 28.4196C9.20798 28.3616 9.15559 28.2812 9.08706 28.1855C8.95045 27.9949 8.74711 27.7399 8.47755 27.4797C7.94188 26.9625 7.11387 26.396 6.00831 26.3185L5.99416 26.3175L5.97997 26.3173L5.97335 26.8172C5.97997 26.3173 5.97981 26.3173 5.97964 26.3173L5.97927 26.3173L5.9784 26.3173L5.97615 26.3172L5.96963 26.3172L5.94898 26.3173C5.93201 26.3174 5.90866 26.3178 5.88033 26.3188C5.82413 26.3207 5.74603 26.325 5.6578 26.3347C5.50125 26.3519 5.23687 26.393 5.01916 26.517C4.90492 26.5821 4.75725 26.6961 4.67415 26.8869C4.58429 27.0932 4.60578 27.3052 4.68096 27.4843C4.8105 27.7929 5.12967 28.0811 5.56202 28.3768L5.5954 28.3996L5.62825 28.415C5.62852 28.4152 5.62883 28.4153 5.62919 28.4155C5.63274 28.4174 5.64066 28.4215 5.65256 28.4283C5.67637 28.4418 5.7161 28.4656 5.76875 28.5016C5.87397 28.5735 6.03109 28.6944 6.216 28.8798C6.58342 29.2483 7.06742 29.8781 7.47068 30.8992L7.4719 30.9027C7.47555 30.9129 7.48046 30.9263 7.48674 30.9426C7.4993 30.9752 7.51735 31.0195 7.54169 31.0735C7.59033 31.1813 7.66442 31.3284 7.77053 31.4985C7.98262 31.8384 8.32486 32.2734 8.84991 32.6668Z" fill="#F5F0F0" stroke="black"/>
<path d="M7.65703 28.4563L7.78673 28.3363L7.78674 28.3363L7.81833 28.3071L7.81552 28.304L7.73428 28.213M7.65703 28.4563L8.04342 28.2236C8.02852 28.1993 8.01069 28.1754 7.99001 28.1528C7.98928 28.152 7.98854 28.1512 7.98781 28.1504C7.98633 28.1488 7.98485 28.1473 7.98337 28.1457C7.96151 28.1231 7.93826 28.1034 7.91428 28.0866C7.86017 28.0873 7.77963 28.1035 7.70277 28.1737L7.70308 28.174M7.65703 28.4563C7.65656 28.4558 7.65609 28.4553 7.65562 28.4548C7.63379 28.4316 7.61509 28.4071 7.5996 28.3819M7.65703 28.4563L7.5996 28.3819M7.73428 28.213V28.213ZM7.73428 28.213L7.70112 28.1758M7.70112 28.1758C7.70177 28.1752 7.70242 28.1746 7.70308 28.174M7.70112 28.1758C7.70087 28.1761 7.70062 28.1763 7.70037 28.1765C7.62617 28.2465 7.60392 28.3264 7.5996 28.3819M7.70112 28.1758L7.70081 28.1755C7.70056 28.1757 7.7003 28.1759 7.70005 28.1762L7.70081 28.1755L7.61085 28.0747C7.59437 28.0917 7.57723 28.1075 7.55961 28.1221L7.5996 28.3819M7.70308 28.174L7.81968 28.3001L7.82258 28.3032L7.82452 28.3014L7.82165 28.2982L7.70699 28.1704C7.70567 28.1716 7.70437 28.1728 7.70308 28.174ZM6.93367 27.5376L7.0186 27.5752L7.0186 27.5752L7.02609 27.5785L7.02765 27.5792L7.02984 27.5802L7.03199 27.5812L7.23764 27.6723C7.2379 27.6718 7.23817 27.6712 7.23843 27.6706C7.2389 27.6696 7.23937 27.6686 7.23984 27.6675C7.24127 27.6643 7.24265 27.661 7.24397 27.6578L7.24327 27.6571L7.07568 27.4895L7.07207 27.4859L7.07065 27.4845L7.0701 27.4839L6.95617 27.37C6.93363 27.3701 6.91211 27.3728 6.89225 27.378C6.86996 27.4007 6.84877 27.4285 6.83079 27.4627C6.83078 27.4627 6.83077 27.4628 6.83076 27.4628M6.93367 27.5376L6.9242 27.5307L6.90015 27.5132L6.83076 27.4628M6.93367 27.5376L6.81916 27.4868M6.93367 27.5376L7.01686 27.598L7.01868 27.5994L7.02063 27.6008L7.02212 27.6019L7.20222 27.7328C7.1913 27.7479 7.17972 27.7614 7.16779 27.7734C7.10608 27.7898 7.02848 27.7828 6.95466 27.7481C6.95404 27.7478 6.95342 27.7476 6.95281 27.7473C6.95098 27.7464 6.94916 27.7456 6.94735 27.7448C6.87396 27.7107 6.81858 27.6577 6.79067 27.6014C6.79336 27.5658 6.80185 27.5272 6.81916 27.4868M6.83076 27.4628L6.83051 27.4626C6.82747 27.4686 6.82462 27.4745 6.82196 27.4804C6.82171 27.481 6.82146 27.4815 6.82121 27.4821C6.82062 27.4834 6.82004 27.4848 6.81946 27.4861M6.83076 27.4628C6.82776 27.4685 6.82485 27.4744 6.82203 27.4804C6.82177 27.481 6.82151 27.4816 6.82126 27.4821C6.82065 27.4834 6.82006 27.4848 6.81946 27.4861M6.81946 27.4861C6.81936 27.4863 6.81925 27.4866 6.81915 27.4868L6.81916 27.4868M6.81946 27.4861C6.81936 27.4863 6.81926 27.4866 6.81916 27.4868M8.77434 29.1846L8.5791 29.3241L8.57591 29.3263L8.57552 29.3266L8.57468 29.3272L8.38371 29.4636C8.3874 29.4656 8.39234 29.4679 8.39872 29.4703C8.42571 29.4806 8.53181 29.5072 8.64635 29.4305C8.64643 29.4304 8.6465 29.4304 8.64658 29.4303C8.64677 29.4302 8.64696 29.4301 8.64715 29.4299L8.77434 29.1846ZM8.77434 29.1846C8.77557 29.1899 8.77684 29.1985 8.77678 29.2108C8.77663 29.2426 8.76192 29.3498 8.65067 29.4275C8.64995 29.428 8.64922 29.4285 8.6485 29.429L8.77434 29.1846ZM7.93326 28.4359C7.8593 28.5019 7.78156 28.5181 7.72763 28.519C7.7039 28.5021 7.68109 28.4822 7.65996 28.4595L7.8198 28.3088L7.93326 28.4359ZM7.26977 27.5506C7.26921 27.5577 7.26841 27.565 7.26735 27.5724L7.09316 27.4529L7.08834 27.4495L7.08748 27.449L7.0861 27.448L6.97295 27.3704C7.01557 27.3725 7.06115 27.3835 7.10562 27.4042C7.10645 27.4046 7.10728 27.405 7.10812 27.4054C7.11023 27.4063 7.11233 27.4073 7.11442 27.4083C7.18672 27.4422 7.24186 27.4948 7.26977 27.5506ZM7.70276 28.1737L7.61104 28.0745L7.70276 28.1737ZM7.82594 28.303L7.93984 28.4299C7.93983 28.4299 7.93982 28.4299 7.93981 28.4299L7.82404 28.3048L7.82594 28.303ZM8.49901 29.2187C8.49939 29.2184 8.49978 29.2181 8.50016 29.2179C8.50071 29.2175 8.50125 29.2171 8.5018 29.2168C8.5025 29.2163 8.5032 29.2158 8.5039 29.2153C8.6229 29.1352 8.73192 29.1655 8.75582 29.1748C8.76265 29.1774 8.76773 29.1799 8.77138 29.182L8.57927 29.3158L8.57525 29.3185L8.57206 29.3206L8.5716 29.321L8.57073 29.3215L8.3755 29.4534C8.37467 29.4486 8.37394 29.4418 8.37398 29.4326C8.37413 29.4025 8.38802 29.2963 8.49901 29.2187ZM8.73019 29.2139L8.77411 29.1837C8.77415 29.1838 8.77419 29.184 8.77423 29.1841L8.73019 29.2139ZM8.37663 29.4593C8.37593 29.4588 8.37541 29.4584 8.37507 29.4581L8.37663 29.4593ZM8.37775 29.4618C8.37771 29.4618 8.37748 29.4613 8.37715 29.4603L8.37775 29.4618ZM8.77912 29.1873C8.77909 29.1873 8.77869 29.187 8.77797 29.1863C8.77879 29.1869 8.77914 29.1873 8.77912 29.1873ZM8.7728 29.1793C8.77224 29.1783 8.77204 29.1777 8.77208 29.1777L8.7728 29.1793ZM9.43349 30.3441C9.43601 30.3412 9.43862 30.3383 9.44131 30.3354L9.50921 30.3977L9.51109 30.3995L9.51244 30.4007L9.5154 30.4034L9.58019 30.4629C9.57785 30.4654 9.5755 30.4679 9.57313 30.4704C9.49101 30.5545 9.40056 30.5578 9.36973 30.5554C9.36949 30.5554 9.36926 30.5554 9.36903 30.5554C9.36837 30.5553 9.36775 30.5553 9.36715 30.5552C9.36696 30.5552 9.36678 30.5552 9.36659 30.5552C9.36626 30.5532 9.36593 30.551 9.36562 30.5486C9.36119 30.5135 9.36165 30.427 9.43349 30.3441ZM9.51053 30.3963L9.44232 30.3343C9.4436 30.333 9.4449 30.3316 9.44622 30.3302L9.51229 30.3945L9.51407 30.3962L9.51538 30.3975L9.51833 30.4004L9.56709 30.4478L9.51675 30.402L9.51375 30.3993L9.51239 30.398L9.51053 30.3963ZM9.64377 30.357L9.61518 30.2998L9.61176 30.293L9.61096 30.2914L9.61078 30.291L9.59138 30.2522C9.61785 30.2473 9.63892 30.2477 9.65028 30.2488C9.65049 30.2488 9.65069 30.2489 9.65089 30.2489C9.65138 30.2489 9.65185 30.249 9.6523 30.249C9.65299 30.2491 9.65363 30.2492 9.65422 30.2493C9.65463 30.2517 9.65504 30.2546 9.6554 30.2581C9.65753 30.2781 9.65782 30.3143 9.64377 30.357ZM9.67567 30.2547C9.67566 30.2547 9.67538 30.2546 9.67483 30.2543L9.67567 30.2547ZM10.8171 31.1728L10.8174 31.1728L10.7589 31.3712C10.7589 31.3712 10.7589 31.3712 10.7589 31.3712C10.7581 31.3701 10.7573 31.3689 10.7564 31.3675C10.7372 31.3385 10.6979 31.2586 10.7308 31.1472L10.8171 31.1728ZM10.7596 31.371L10.8194 31.1734L10.8197 31.1735L10.9074 31.1994C10.8712 31.3163 10.7882 31.3597 10.7603 31.3707C10.76 31.3708 10.7598 31.3709 10.7596 31.371ZM10.9087 31.1951L10.8803 31.1863L10.9088 31.1946C10.9088 31.1948 10.9087 31.1949 10.9087 31.1951ZM10.9089 31.1944L10.8649 31.1815L10.8214 31.168L10.8211 31.1679L10.8808 30.9708C10.8808 30.9709 10.8808 30.9709 10.8809 30.9709C10.8979 30.995 10.9433 31.0768 10.9089 31.1944ZM10.8225 31.1555L10.8191 31.1672L10.8189 31.1672L10.7328 31.1404C10.7684 31.026 10.8482 30.9825 10.8771 30.9706L10.8225 31.1555L10.8225 31.1555ZM12.2557 31.4187C12.2557 31.4175 12.2556 31.4163 12.2556 31.4151H12.3485H12.3512H12.3524L12.3524 31.4154L12.3561 31.6169C12.3555 31.6174 12.355 31.6178 12.3544 31.6182C12.3543 31.6181 12.3541 31.618 12.354 31.6179C12.3538 31.6177 12.3535 31.6176 12.3533 31.6174C12.3329 31.6027 12.262 31.5401 12.2557 31.4187ZM12.3528 31.4154L12.3528 31.4151H12.3614H12.4441C12.4441 31.5317 12.3813 31.5967 12.3567 31.6164L12.3528 31.4154ZM12.3527 31.4092L12.3525 31.4013H12.4438C12.4439 31.4035 12.444 31.4057 12.444 31.4079L12.3527 31.4092ZM12.3484 31.4093L12.2554 31.4106C12.2553 31.4076 12.2553 31.4045 12.2553 31.4013H12.3482H12.351H12.3522L12.3523 31.4092L12.3511 31.4093L12.3484 31.4093ZM13.788 31.2278L13.6995 31.2443C13.6788 31.1273 13.7287 31.0515 13.7504 31.0258L13.788 31.2278ZM13.7003 31.2487L13.7891 31.2333L13.7929 31.2537L13.8237 31.4324C13.7944 31.4162 13.7218 31.363 13.7003 31.2487ZM13.7902 31.2382L13.7893 31.2333L13.7894 31.2333L13.7902 31.2382ZM13.7883 31.2277L13.7507 31.0254L13.7883 31.2277Z" fill="#F5F0F0" stroke="black"/>
</svg>
