<svg width="150" height="150" viewBox="0 0 150 150" fill="none" xmlns="http://www.w3.org/2000/svg">
<path d="M73.3852 78C68.3535 71.9948 64.7032 67.016 59.6462 57.6407C51.0953 41.8048 111.653 27.4954 87.099 0C97.7423 18.9933 48.897 30.735 44.3594 46.5522C40.21 61.1004 73.36 78 73.3852 78Z" fill="#F44336"/>
<path d="M74.0547 49.341C73.0866 58.7809 85.2935 63.8123 85.6465 70.7084C85.9288 76.3213 78.3505 81 78.3505 81C78.3505 81 92.1054 78.9889 96.3962 70.427C101.161 60.9195 87.149 54.4098 88.5911 46.7971C89.9373 39.5258 119 26 119 26C119 26 76.2379 28.1086 74.0547 49.341Z" fill="#F44336"/>
<path d="M115.42 78.9583C124.19 77.4808 131.585 81.6695 131.585 86.4956C131.585 97.3741 111.48 107.656 111.48 107.656C111.48 107.656 142.605 104.874 142.605 87.0131C142.605 75.2009 127.32 72.2497 115.42 78.9583ZM100.645 87.7331C100.645 87.7331 110.35 82.5469 112.935 80.6007C89.12 84.3919 34.745 84.9019 34.745 81.6095C34.745 78.5758 52.28 75.4671 52.28 75.4671C52.28 75.4671 13.415 75.0471 13.415 83.6457C13.415 92.608 64.29 93.2492 100.645 87.7331Z" fill="#1565C0"/>
<path d="M94.6749 95.8929C72.1299 101.514 30.6049 99.7178 42.9049 92.1692C36.9149 92.1692 28.0349 95.7804 28.0349 99.2528C28.0349 106.216 72.9449 111.594 106.185 101.398L94.6749 95.8929Z" fill="#1565C0"/>
<path d="M48.4301 107.773C40.2501 107.773 34.9551 111.725 34.9551 114.605C34.9551 123.571 83.7551 124.475 103.09 115.374L90.8001 109.254C76.3551 114.016 40.0701 114.672 48.4301 107.773Z" fill="#1565C0"/>
<path d="M136.405 122.371C136.405 118.861 131.13 117.208 129.24 116.416C140.38 136.565 17.655 135.001 17.655 123.106C17.655 120.402 26.69 117.755 35.04 119.008L27.94 115.861C11.3 113.904 0 119.39 0 123.815C0 144.451 136.405 143.457 136.405 122.371Z" fill="#1565C0"/>
<path d="M150 129.766C129.27 145.122 76.705 150.717 23.845 141.229C76.705 158.115 149.75 148.606 150 129.766Z" fill="#1565C0"/>
</svg>
